<?xml version="1.0" standalone="no"?>
<!DOCTYPE svg PUBLIC "-//W3C//DTD SVG 1.0//EN" "http://www.w3.org/TR/2001/REC-SVG-20010904/DTD/svg10.dtd">
<svg xmlns="http://www.w3.org/2000/svg" xmlns:xlink="http://www.w3.org/1999/xlink" id="body_1" width="1571" height="1707">

<g transform="matrix(1.3336161 0 0 1.3335936 0 0)">
	<g transform="matrix(0.1 0 -0 -0.1 0 1280)">
        <path d="M0 6910L0 1020L1849 1020L3697 1020L4794 510L5890 0L6986 510L8083 1020L9931 1020L11780 1020L11780 6910L11780 12800L5890 12800L0 12800L0 6910zM8210 11003C 8246 10995 8318 10968 8370 10942C 8451 10903 8478 10883 8555 10806C 8658 10702 8714 10607 8751 10475C 8780 10373 8782 10209 8756 10105C 8734 10014 8672 9889 8612 9815C 8386 9534 7967 9457 7659 9640C 7418 9783 7276 10046 7293 10320C 7301 10438 7320 10512 7371 10615C 7522 10922 7867 11082 8210 11003zM4080 10905C 4172 10883 4277 10829 4363 10761C 4658 10527 4726 10101 4519 9783C 4457 9688 4338 9582 4239 9532C 3861 9342 3410 9492 3231 9867C 3174 9984 3165 10032 3166 10190C 3166 10319 3169 10344 3193 10415C 3231 10529 3283 10613 3375 10706C 3562 10895 3817 10967 4080 10905zM9085 9272C 9462 9200 9697 9027 9799 8746C 9851 8602 9851 8583 9848 7539L9848 7539L9845 6573L9810 6504C 9771 6428 9705 6369 9635 6348C 9571 6328 9462 6332 9409 6357C 9343 6387 9285 6443 9253 6508L9253 6508L9225 6565L9222 7458L9220 8350L9119 8350L9019 8350L9021 5643C 9022 2953 9022 2935 9002 2878C 8927 2667 8710 2549 8497 2605C 8370 2638 8281 2711 8223 2828L8223 2828L8185 2904L8182 4682L8180 6460L8085 6460L7990 6460L7990 4748C 7990 3651 7986 3010 7980 2965C 7961 2833 7886 2717 7779 2653C 7544 2512 7241 2628 7160 2889C 7140 2951 7140 2992 7140 5656L7140 5656L7140 8360L7040 8360L6940 8360L6940 7512C 6940 6640 6938 6583 6900 6510C 6874 6459 6803 6394 6745 6368C 6671 6335 6562 6337 6487 6373C 6416 6408 6358 6472 6331 6544C 6310 6601 6310 6605 6310 7566C 6310 8617 6309 8603 6367 8748C 6420 8879 6530 9015 6650 9097C 6793 9194 7013 9269 7215 9290C 7259 9294 7673 9297 8135 9295C 8939 9293 8980 9292 9085 9272zM4480 9200C 4785 9176 5023 9100 5240 8955C 5417 8837 5571 8671 5659 8500C 5684 8452 5807 8095 6001 7510C 6335 6503 6325 6541 6277 6437C 6174 6216 5869 6192 5737 6394C 5704 6443 5680 6515 5680 6560C 5680 6572 5544 6962 5378 7426L5378 7426L5077 8270L4983 8270C 4917 8270 4890 8267 4890 8258C 4890 8251 4932 8117 4984 7960C 5742 5665 5830 5398 5830 5387C 5830 5383 5617 5379 5358 5378L5358 5378L4885 5375L4880 4105L4875 2835L4843 2769C 4802 2686 4723 2610 4633 2567C 4570 2538 4557 2535 4465 2535C 4385 2536 4354 2540 4310 2558C 4191 2606 4097 2707 4060 2828C 4041 2890 4040 2925 4040 4136L4040 4136L4040 5380L3945 5380L3851 5380L3848 4123L3845 2865L3822 2809C 3787 2722 3742 2661 3677 2614C 3453 2449 3146 2538 3034 2800C 3016 2843 3015 2891 3010 4110L3010 4110L3005 5375L2530 5380L2054 5385L2531 6828C 2793 7621 3005 8272 3001 8274C 2989 8282 2810 8278 2805 8270C 2785 8238 2202 6575 2196 6535C 2168 6324 1936 6203 1745 6301C 1654 6348 1580 6459 1580 6550C 1580 6580 1623 6724 1716 7005C 1790 7230 1923 7631 2010 7895C 2098 8159 2178 8419 2189 8473C 2238 8717 2377 8888 2630 9015C 2822 9112 3083 9179 3346 9199C 3505 9211 4323 9212 4480 9200z" stroke="none" fill="#FF9800" fill-rule="nonzero" />
	</g>
</g>
</svg>